<svg xmlns="http://www.w3.org/2000/svg" viewBox="0 0 24 24" fill="none" stroke="currentColor" stroke-width="2" stroke-linecap="round" stroke-linejoin="round" width="100%" height="100%">
  <!-- Stamp Handle -->
  <path d="M12 2a3 3 0 0 0-3 3v3h6V5a3 3 0 0 0-3-3z" />
  <!-- Stamp Base Plate -->
  <path d="M4 8h16a1 1 0 0 1 1 1v3a1 1 0 0 1-1 1H4a1 1 0 0 1-1-1V9a1 1 0 0 1 1-1z" />
  <!-- Line on base plate showing rubber thickness -->
  <line x1="3" y1="11" x2="21" y2="11" stroke-width="1" />

  <!-- Stamped Impression (Visum/Verification) -->
  <!-- Circular stamp print border with authentic dashed segments -->
  <path d="M6 16a6 6 0 0 0 12 0" stroke-width="1.5" stroke-dasharray="5 2 2 2" />
  <!-- Checkmark inside stempel -->
  <path d="m10 16 1.5 1.5 2.5-3" stroke-width="1.5" />
  
  <!-- Paper surface line -->
  <line x1="2" y1="21" x2="22" y2="21" stroke-width="1" stroke-dasharray="4 3" />
</svg>
