<svg xmlns="http://www.w3.org/2000/svg" viewBox="0 0 24 24" fill="none" stroke="currentColor" stroke-width="2" stroke-linecap="round" stroke-linejoin="round" width="100%" height="100%">
  <!-- Upright Stamp Device -->
  <path d="M12 2a2.5 2.5 0 0 0-2.5 2.5c0 1 1.5 2.5 1.5 3.5v2H8.5a1.5 1.5 0 0 0-1.5 1.5V13h10v-1.5A1.5 1.5 0 0 0 15.5 10H13V8c0-1 1.5-2.5 1.5-3.5A2.5 2.5 0 0 0 12 2z" fill="currentColor" fill-opacity="0.05" />
  <path d="M5 13h14" />

  <!-- Stamped Ink Impression (Clearly separated & perfectly centered) -->
  <!-- Outer stamp circle with subtle dash representing wet ink impression -->
  <circle cx="12" cy="18.5" r="4.5" stroke-width="1.5" stroke-dasharray="4 1.5" />
  <!-- Centered checkmark inside the stamp seal -->
  <path d="m10 18.5 1.3 1.3 2.7-2.7" stroke-width="1.5" />
</svg>
